<svg xmlns="http://www.w3.org/2000/svg" viewBox="0 0 18 13.4"><linearGradient id="a" gradientUnits="userSpaceOnUse" y1="68.515" x2="18" y2="68.515" gradientTransform="matrix(1 0 0 -1 0 76)"><stop offset=".005" stop-color="#c65445"/><stop offset="1" stop-color="#a93f2d"/></linearGradient><path d="M9 8.1L0 1.5v10.8c0 .6.5 1.1 1.1 1.1h15.8c.6 0 1.1-.5 1.1-1.1V1.7L9 8.1z" fill="url(#a)"/><path fill="#ccc" d="M15.8 0H2.2v3.8l5.4 5.5 8.2-6.1z"/><path fill="#efefef" d="M16.5 0h-15L9 5.6z"/><linearGradient id="b" gradientUnits="userSpaceOnUse" y1="71.929" x2="18" y2="71.929" gradientTransform="matrix(1 0 0 -1 0 76)"><stop offset=".002" stop-color="#cf5e50"/><stop offset=".496" stop-color="#ce5748"/><stop offset=".999" stop-color="#cc5344"/></linearGradient><path d="M16.9 0h-.4L9 5.6 1.5 0h-.4C.5 0 0 .5 0 1.1v.4l9 6.6 9-6.4v-.6c0-.6-.5-1.1-1.1-1.1z" fill="url(#b)"/><path fill="#eaeaea" d="M2.2 13.2v.2h9.4l-4-4.1z"/><path fill="#ddd" d="M15.8 3.2L7.6 9.3l4 4.1h4.2z"/><path fill="#e3e3e3" d="M2.2 13.2l5.4-3.9-5.4-5.5z"/></svg>