<?xml version="1.0" encoding="utf-8"?>
<!-- Generator: Adobe Illustrator 22.1.0, SVG Export Plug-In . SVG Version: 6.00 Build 0)  -->
<svg version="1.1" id="레이어_1" xmlns="http://www.w3.org/2000/svg" xmlns:xlink="http://www.w3.org/1999/xlink" x="0px"
	 y="0px" viewBox="0 0 50 50" style="enable-background:new 0 0 50 50;" xml:space="preserve">
<style type="text/css">
	.st0{fill:url(#SVGID_1_);}
	.st1{fill:url(#SVGID_2_);}
	.st2{fill:url(#SVGID_3_);}
	.st3{fill:url(#SVGID_4_);}
	.st4{fill:url(#SVGID_5_);}
</style>
<g>
	<g>
		
			<linearGradient id="SVGID_1_" gradientUnits="userSpaceOnUse" x1="6.4675" y1="-676.5764" x2="47.7116" y2="-705.0477" gradientTransform="matrix(1 0 0 -1 0 -664.4)">
			<stop  offset="0" style="stop-color:#21B0FD"/>
			<stop  offset="0.5" style="stop-color:#311CC2"/>
			<stop  offset="1" style="stop-color:#7300CC"/>
		</linearGradient>
		<path class="st0" d="M24.8,40.5c-4.1,0-8.2-1-11.9-2.9c-3.4-1.8-6.5-4.4-9.1-7.6c-0.9-1.1-1.7-2.2-2.5-3.5c-0.8-1.3-0.8-1.7,0-2.9
			c2.6-4.3,5.8-7.6,9.8-10.1c3.6-2.4,7.8-3.7,12.2-3.9c3.4-0.3,6.5,0.1,9.7,1.1c3.5,1.1,6.7,3,9.7,5.6c2.5,2.2,4.4,4.8,6.2,7.6
			c0.4,0.7,0.5,1.5,0,2c-3.2,5.3-7.4,9.4-12.6,12C32.8,39.7,29,40.5,24.8,40.5z M16.8,36.3c-2.7-2.8-3.9-5.3-4.4-7.9
			c-0.1-0.4-0.3-0.7-0.5-1c-0.8-0.7-0.5-1.9,0.4-2.4c0.5-0.3,1.1-0.1,1.5,0.3c0.4,0.4,0.5,1.1,0.1,1.8c-0.3,0.4-0.3,0.9-0.1,1.5
			c0.3,1,0.6,1.8,1,2.7c2.7,5.7,8.3,7.9,13.9,6.2c1.1-0.3,2.3-1,3.4-1.8c0.6-0.4,1.1-0.4,1.3,0.1c0.1,0.7,0.5,0.6,1,0.4
			c5.1-2,9.2-5.7,12.4-10.6c0.3-0.4,0.3-0.7,0-1.3c-2.6-4-6-7.2-10.1-9.5c-0.9-0.6-1.9-1-3.1-1.5c0,0.1,0,0.1,0.1,0.1
			c0.1,0.1,0.1,0.1,0.3,0.3c2,1.9,3.4,4.4,4.2,7.2c0.1,0.4,0.3,0.6,0.5,0.9c0.6,0.6,0.8,1.5,0.4,2c-0.4,0.6-1.1,0.9-1.8,0.4
			c-0.6-0.4-0.9-1.1-0.5-1.9c0.1-0.4,0.1-0.7,0-1.1c-0.6-2.4-1.8-4.5-3.5-6.2c-3.1-2.8-6.5-3.8-10.5-2.9c-1.4,0.3-2.7,1-4.1,1.9
			c-0.5,0.4-1,0.3-1.1-0.3c-0.1-0.7-0.4-0.4-0.8-0.3C11.4,15.7,7.3,19.4,4,24.2c-0.4,0.6-0.4,1,0,1.6c2.6,3.8,5.6,6.7,9.4,9
			C14.4,35.2,15.5,35.9,16.8,36.3z"/>
		
			<linearGradient id="SVGID_2_" gradientUnits="userSpaceOnUse" x1="6.0231" y1="-676.1346" x2="48.4036" y2="-705.39" gradientTransform="matrix(1 0 0 -1 0 -664.4)">
			<stop  offset="0" style="stop-color:#21B0FD"/>
			<stop  offset="0.5" style="stop-color:#311CC2"/>
			<stop  offset="1" style="stop-color:#7300CC"/>
		</linearGradient>
		<path class="st1" d="M35.9,25c-0.1,6.6-4.8,11.7-10.7,11.7c-6.2,0-10.7-5.7-10.7-11.9c0.1-5.8,4.3-11.6,10.7-11.6
			C31.3,13.3,35.6,18.6,35.9,25z M15.7,25c0,5.6,4.2,10.2,9.3,10.2s9.4-4.7,9.4-10.4c0-5.6-4.2-10.2-9.3-10.2
			C19.9,14.8,15.7,19.3,15.7,25z"/>
		
			<linearGradient id="SVGID_3_" gradientUnits="userSpaceOnUse" x1="3.3011" y1="-672.4041" x2="50.7681" y2="-705.1708" gradientTransform="matrix(1 0 0 -1 0 -664.4)">
			<stop  offset="0" style="stop-color:#21B0FD"/>
			<stop  offset="0.5" style="stop-color:#311CC2"/>
			<stop  offset="1" style="stop-color:#7300CC"/>
		</linearGradient>
		<path class="st2" d="M38.1,26.6c-0.1,1.7-0.5,3.3-1.3,4.8c-0.5,1.1-1.1,2.2-1.9,3.3c-0.3,0.3-0.5,0.6-1,0.4
			c-0.5-0.3-0.5-0.7-0.1-1.3c0.9-1.3,1.8-2.7,2.3-4.3c0.3-1,0.5-1.8,0.6-2.8c0-0.4,0.3-0.9,0.8-0.7C38,25.9,38.1,26.2,38.1,26.6z"/>
		
			<linearGradient id="SVGID_4_" gradientUnits="userSpaceOnUse" x1="4.37" y1="-676.742" x2="51.2715" y2="-709.1183" gradientTransform="matrix(1 0 0 -1 0 -664.4)">
			<stop  offset="0" style="stop-color:#21B0FD"/>
			<stop  offset="0.5" style="stop-color:#311CC2"/>
			<stop  offset="1" style="stop-color:#7300CC"/>
		</linearGradient>
		<path class="st3" d="M12,22.6c0.3-1.7,0.8-3.4,1.7-5c0.5-0.9,1-1.7,1.7-2.4c0.3-0.3,0.6-0.7,1-0.3c0.4,0.4,0.3,0.9,0,1.3
			c-1.7,1.9-2.6,4.3-3.1,6.8c-0.1,0.4-0.4,0.7-0.8,0.6C12.2,23.5,12,23.2,12,22.6z"/>
		
			<linearGradient id="SVGID_5_" gradientUnits="userSpaceOnUse" x1="5.4074" y1="-676.204" x2="48.6646" y2="-706.0649" gradientTransform="matrix(1 0 0 -1 0 -664.4)">
			<stop  offset="0" style="stop-color:#21B0FD"/>
			<stop  offset="0.5" style="stop-color:#311CC2"/>
			<stop  offset="1" style="stop-color:#7300CC"/>
		</linearGradient>
		<path class="st4" d="M25.2,32.1c-0.6,0-1.1,0-1.8,0c-0.9,0-1.1-0.3-1-1.3c0.3-1.7,0.5-3.4,0.8-5.2c0.1-0.6,0-1-0.4-1.3
			c-1.3-1.6-1.4-3.7-0.1-5c1.3-1.6,3.2-1.8,4.8-0.6c1.7,1.3,1.9,3.9,0.5,5.6c-0.5,0.6-0.5,1-0.4,1.7c0.3,1.6,0.5,3.3,0.8,4.8
			c0.1,1-0.1,1.3-1,1.3C26.3,32.1,25.7,32.1,25.2,32.1z"/>
	</g>
</g>
</svg>
