<?xml version="1.0" encoding="utf-8"?>
<!-- Generator: Adobe Illustrator 23.0.0, SVG Export Plug-In . SVG Version: 6.00 Build 0)  -->
<svg version="1.1" xmlns="http://www.w3.org/2000/svg" xmlns:xlink="http://www.w3.org/1999/xlink" x="0px" y="0px"
	 viewBox="0 0 298 300" style="enable-background:new 0 0 298 300;" xml:space="preserve">
<style type="text/css">
	.st0{display:none;}
	.st1{opacity:0.6;fill:#FFFFFF;}
	.st2{fill:#FFFFFF;}
	.st3{fill:#3E8FF7;}
</style>
<g id="레이어_1" class="st0">
	
		<image style="display:inline;overflow:visible;" width="196" height="186" xlink:href="17A0F383F25E5B8.png"  transform="matrix(2.1774 0 0 2.1774 -111 -82)">
	</image>
</g>
<g id="레이어_2">
	<path class="st1" d="M711,206H568c-5.5,0-10-4.5-10-10V53c0-5.5,4.5-10,10-10h143c5.5,0,10,4.5,10,10v143
		C721,201.5,716.5,206,711,206z"/>
	<g>
		<path class="st2" d="M435.59,263h-39.41c-6.7,0-12.19-5.48-12.19-12.19V111.19c0-6.7,5.48-12.19,12.19-12.19h39.41
			c6.7,0,12.19,5.48,12.19,12.19v139.63C447.78,257.52,442.29,263,435.59,263z"/>
	</g>
	<g>
		<path class="st2" d="M384,250.81v-39.41c0-6.7,5.48-12.19,12.19-12.19h139.63c6.7,0,12.19,5.48,12.19,12.19v39.41
			c0,6.7-5.48,12.19-12.19,12.19H396.19C389.48,263,384,257.52,384,250.81z"/>
	</g>
	<path class="st2" d="M464,58h-34c-6.6,0-12-5.4-12-12v-85c0-6.6,5.4-12,12-12h34c6.6,0,12,5.4,12,12v85C476,52.6,470.6,58,464,58z"
		/>
	<path class="st2" d="M428,56V22c0-6.6,5.4-12,12-12h85c6.6,0,12,5.4,12,12v34c0,6.6-5.4,12-12,12h-85C433.4,68,428,62.6,428,56z"/>
	<path class="st2" d="M476,0.96c0,0-0.91,9.06,9.05,9.05C495,10,489,20,489,20l-22,4l-8-21L476,0.96z"/>
	<g>
		<path class="st3" d="M197.46,217.17H96.24c-11.68-0.45-12.71-10.19-12.83-13.28l-0.29-101.06c0-8.7-7.12-15.83-15.83-15.83H16.12
			c-8.7,0-15.83,7.12-15.83,15.83V233v51.18c0,8.7,7.12,15.83,15.83,15.83H67.3h130.16c8.7,0,15.83-7.12,15.83-15.83V233
			C213.29,224.29,206.16,217.17,197.46,217.17z"/>
		<path class="st3" d="M284.71,0H99c-7.14,0-12.99,5.84-12.99,12.99v45.46c0,0,0,10.38,11.69,11.68c0.33,0.04,0,0,0.73,0h34.33
			c8.57,0,15.58,7.01,15.58,15.58v53.47c0.2,3.16,1.75,9.97,11.33,10.16h52.3c8.57,0,15.58,7.01,15.58,15.58v35.07
			c0,0,0,10.38,11.49,11.49c0.33,0.03,0.64,0.1,0.93,0.19h44.72c7.14,0,12.99-5.84,12.99-12.99V12.99C297.7,5.84,291.86,0,284.71,0z
			"/>
	</g>
</g>
</svg>
