<?xml version="1.0" encoding="utf-8"?>
<!-- Generator: Adobe Illustrator 22.0.1, SVG Export Plug-In . SVG Version: 6.00 Build 0)  -->
<svg version="1.1" id="Layer_1" xmlns="http://www.w3.org/2000/svg" xmlns:xlink="http://www.w3.org/1999/xlink" x="0px" y="0px"
	 viewBox="0 0 50 50" style="enable-background:new 0 0 50 50;" xml:space="preserve">
<style type="text/css">
	.st0{fill:#1348E8;}
</style>
<path class="st0" d="M30.5,27.3v-5.7c0-2.4-2-4.4-4.4-4.4h-2.2c-2.4,0-4.4,2-4.4,4.4v5.7c0,2.4,2,4.4,4.4,4.4h2.2
	c0.7,0,1.4-0.2,2-0.5l1.4,1.4c0.1,0.1,0.2,0.2,0.4,0.2c0.1,0,0.3-0.1,0.4-0.2c0.2-0.2,0.2-0.6,0-0.8L29,30.5
	C29.9,29.7,30.5,28.6,30.5,27.3z M26.3,29.3l1,1c-0.4,0.1-0.8,0.2-1.2,0.2h-2.2c-1.8,0-3.3-1.5-3.3-3.3v-5.7c0-1.8,1.5-3.3,3.3-3.3
	h2.2c1.8,0,3.3,1.5,3.3,3.3v5.7c0,1-0.4,1.9-1.1,2.5L27,28.5c-0.2-0.2-0.6-0.2-0.8,0C26,28.7,26,29.1,26.3,29.3z"/>
<path class="st0" d="M25,2.2C12.4,2.2,2.2,12.4,2.2,25S12.4,47.8,25,47.8S47.8,37.6,47.8,25S37.6,2.2,25,2.2z M47,24.3l-1.8,0.2
	c0-0.3,0-0.5,0-0.7l1.8-0.2C47,23.8,47,24,47,24.3z M25,44.4C14.3,44.4,5.6,35.7,5.6,25S14.3,5.6,25,5.6S44.4,14.3,44.4,25
	S35.7,44.4,25,44.4z M46.4,20l-1.8,0.5c0-0.3-0.2-0.5-0.2-0.7l1.8-0.5C46.3,19.6,46.4,19.7,46.4,20z M45.2,16.1l-1.6,0.7
	c-0.2-0.3-0.2-0.5-0.3-0.7l1.6-0.7C45,15.6,45,15.9,45.2,16.1z M43,12.6l-1.5,1c-0.2-0.2-0.3-0.5-0.5-0.6l1.5-1
	C42.7,12.1,42.9,12.2,43,12.6z M40.4,9.3l-1.3,1.3c-0.2-0.1-0.3-0.3-0.6-0.5l1.4-1.3C40.1,9,40.2,9.1,40.4,9.3z M37.3,6.8l-1,1.5
	c-0.2-0.2-0.5-0.3-0.6-0.5l1-1.5C36.9,6.5,37.1,6.6,37.3,6.8z M33.6,4.8l-0.7,1.8c-0.3-0.2-0.5-0.2-0.7-0.3l0.7-1.8
	C33.3,4.6,33.5,4.6,33.6,4.8z M29.7,3.5l-0.3,1.8C29.2,5.2,29,5,28.7,5L29,3.3C29.3,3.5,29.4,3.5,29.7,3.5z M25,3c0.2,0,0.3,0,0.5,0
	v1.8c-0.2,0-0.3,0-0.5,0s-0.3,0-0.3,0V3C24.7,3,24.8,3,25,3z M21,3.5l0.3,1.8c-0.3,0-0.5,0.2-0.7,0.2l-0.3-1.8
	C20.6,3.5,20.9,3.5,21,3.5z M17.1,4.5l0.7,1.8c-0.3,0.2-0.5,0.2-0.7,0.3l-0.7-1.8C16.5,4.6,16.7,4.6,17.1,4.5z M13.4,6.3l1,1.5
	C14.3,8,14,8.1,13.9,8.3l-1-1.5C12.9,6.6,13.1,6.5,13.4,6.3z M10,8.8l1.3,1.3c-0.2,0.2-0.5,0.3-0.6,0.5L9.4,9.3
	C9.8,9.1,9.9,9,10,8.8z M7.4,11.9l1.5,1c-0.2,0.2-0.3,0.5-0.5,0.6l-1.5-1C7.1,12.2,7.3,12.1,7.4,11.9z M5.2,15.4l1.6,0.7
	c-0.2,0.2-0.2,0.5-0.3,0.7l-1.6-0.7C5,15.9,5,15.6,5.2,15.4z M3.7,19.2l1.8,0.5c0,0.3-0.2,0.5-0.2,0.7L3.5,20
	C3.5,19.7,3.7,19.6,3.7,19.2z M3.1,23.5l1.8,0.2c0,0.3,0,0.5,0,0.7l-1.9-0.2C3,24,3,23.8,3.1,23.5z M3.1,28l1.8-0.3
	c0,0.3,0,0.5,0.2,0.7l-1.8,0.3C3.3,28.3,3.3,28.1,3.1,28z M4.2,32.1L6,31.5c0.2,0.3,0.2,0.5,0.3,0.7l-1.8,0.5
	C4.3,32.5,4.2,32.2,4.2,32.1z M5.8,35.7l1.6-0.8c0.2,0.2,0.3,0.5,0.5,0.6l-1.6,0.8C6.1,36.1,6,36.1,5.8,35.7z M8.1,39.1l1.3-1.2
	c0.2,0.2,0.3,0.3,0.5,0.6l-1.2,1.2C8.6,39.5,8.3,39.4,8.1,39.1z M11.1,42l1.2-1.5c0.2,0.2,0.5,0.3,0.6,0.5l-1.2,1.5
	C11.5,42.4,11.2,42.2,11.1,42z M14.4,44.4l0.8-1.6c0.2,0.2,0.5,0.2,0.6,0.3L15,44.7C14.9,44.5,14.7,44.4,14.4,44.4z M18.2,46
	l0.6-1.8c0.3,0.2,0.5,0.2,0.7,0.2L19,46.2C18.9,46.2,18.5,46,18.2,46z M22.5,46.9l0.2-1.8c0.3,0,0.5,0,0.7,0l-0.2,1.8
	C23,46.9,22.7,46.9,22.5,46.9z M26.8,46.9l-0.2-1.8c0.3,0,0.5,0,0.7,0l0.2,1.8C27.3,46.9,27,46.9,26.8,46.9z M31,46.2l-0.6-1.8
	c0.3,0,0.5-0.2,0.7-0.2l0.6,1.8C31.5,46,31.1,46.2,31,46.2z M34.8,44.7L34,43.1c0.2-0.2,0.5-0.2,0.6-0.3l0.8,1.6
	C35.3,44.4,35.1,44.5,34.8,44.7z M38.4,42.5L37.2,41c0.2-0.2,0.5-0.3,0.6-0.5l1.2,1.5C38.8,42.2,38.5,42.4,38.4,42.5z M41.2,39.7
	l-1.3-1.2c0.2-0.2,0.3-0.3,0.5-0.6l1.3,1.2C41.7,39.4,41.4,39.5,41.2,39.7z M43.8,36.4l-1.6-0.8c0.2-0.2,0.3-0.5,0.5-0.6l1.6,0.8
	C44,36.1,43.9,36.1,43.8,36.4z M45.5,32.6l-1.8-0.6c0.2-0.3,0.2-0.5,0.3-0.7l1.8,0.6C45.8,32.2,45.7,32.5,45.5,32.6z M46.7,28.7
	L45,28.4c0-0.3,0.2-0.5,0.2-0.7l1.8,0.3C46.7,28.1,46.7,28.3,46.7,28.7z"/>
</svg>
