<?xml version="1.0" encoding="utf-8"?>
<!-- Generator: Adobe Illustrator 22.0.1, SVG Export Plug-In . SVG Version: 6.00 Build 0)  -->
<svg version="1.1" id="Layer_1" xmlns="http://www.w3.org/2000/svg" xmlns:xlink="http://www.w3.org/1999/xlink" x="0px" y="0px"
	 viewBox="0 0 50 50" style="enable-background:new 0 0 50 50;" xml:space="preserve">
<style type="text/css">
	.st0{fill:#37AEE2;}
	.st1{fill:#AFCBDE;}
	.st2{fill:#FFFFFF;}
	.st3{fill:#C8DAEA;}
</style>
<g>
	<circle class="st0" cx="25" cy="25" r="22.8"/>
	<g>
		<polygon class="st1" points="23.7,28.5 21.2,29.4 20.9,34.9 20.6,35.1 24.9,31.5 24.9,29.1 		"/>
		<path class="st2" d="M13.2,26.2c0,0-1.5,0-1.6-1c0-0.9,1.6-1.2,1.6-1.2l21.2-8.1c0,0,0.6-0.3,1.2,0.3c0.6,0.6,0.3,1.5,0.3,1.5
			l-3.7,17.7c0,0,0.1,0.6-0.7,0.9c-0.9,0.3-1.9-0.7-1.9-0.7l-8.4-6l-2.9-1.6L13.2,26.2z"/>
		<path class="st3" d="M18.2,27.8c0,0,12.8-8.5,13.2-8.2c0.3,0.3-0.3,0.7-0.3,0.7l-10,9.1l-0.3,5.4c0,0-0.3,0.9-0.9,0
			C19.3,34,18.2,27.8,18.2,27.8z"/>
	</g>
</g>
</svg>
