<?xml version="1.0" encoding="utf-8"?>
<!-- Generator: Adobe Illustrator 22.0.1, SVG Export Plug-In . SVG Version: 6.00 Build 0)  -->
<svg version="1.1" id="Layer_1" xmlns="http://www.w3.org/2000/svg" xmlns:xlink="http://www.w3.org/1999/xlink" x="0px" y="0px"
	 viewBox="0 0 50 50" style="enable-background:new 0 0 50 50;" xml:space="preserve">
<style type="text/css">
	.st0{fill:none;stroke:#000000;stroke-width:0.75;stroke-linejoin:round;stroke-miterlimit:10;}
	.st1{fill:none;stroke:#000000;stroke-width:0.75;stroke-linecap:round;stroke-miterlimit:10;}
</style>
<g>
	<path class="st0" d="M36.5,18.2c-0.6,0.9-1.6,1.7-2.8,1.8c-2.6,0.2-4.4-0.7-5.1-1.7c0,0,0.8,0.1,1.5-0.2c0.7-0.3,1.6-1,2.5-1.1
		c3.4-0.3,6.5,2.3,6.8,5.7s-2.3,6.5-5.7,6.8"/>
	<path class="st0" d="M30.4,8.4c0.6,0.9,0.7,2.3,0.1,3.4c-1.1,2.4-2.8,3.4-4,3.6c0,0,0.6-0.7,0.6-1.4c0-0.8-0.1-1.8,0.2-2.7
		c1.5-3.2,5.2-4.5,8.3-3.1s4.5,5.2,3.1,8.3"/>
	<path class="st0" d="M19,8.7c1.1,0,2.3,0.6,3,1.6c1.6,2.2,1.6,4.2,1.1,5.2c0,0-0.3-0.8-0.9-1.1c-0.7-0.3-1.7-0.8-2.2-1.6
		c-2-2.8-1.4-6.7,1.5-8.7s6.7-1.4,8.7,1.5"/>
	<path class="st0" d="M13.5,18.8c0.6-0.9,1.6-1.7,2.8-1.8c2.6-0.2,4.4,0.7,5.1,1.7c0,0-0.8-0.1-1.5,0.2c-0.7,0.3-1.6,1-2.5,1.1
		c-3.4,0.3-6.5-2.3-6.8-5.7s2.3-6.5,5.7-6.8"/>
	<path class="st0" d="M19.6,28.5c-0.6-0.9-0.7-2.3-0.1-3.4c1.1-2.4,2.8-3.4,4-3.6c0,0-0.6,0.7-0.6,1.4c0,0.7,0.1,1.8-0.2,2.7
		c-1.5,3.2-5.2,4.5-8.3,3.1c-3.2-1.5-4.5-5.2-3.1-8.3"/>
	<path class="st0" d="M31.2,28.4c-1.1,0-2.5-0.7-3.2-1.8c-1.6-2.2-1.6-4.2-1.1-5.2c0,0,0.3,0.8,0.9,1.1c0.7,0.3,1.7,0.8,2.2,1.6
		c2,2.8,1.2,5.6-0.2,7.3l-7.9,6.6"/>
	<line class="st1" x1="19.7" y1="30.1" x2="23.8" y2="34.7"/>
	<line class="st1" x1="27.5" y1="35.9" x2="22" y2="40.3"/>
	<line class="st1" x1="27.5" y1="38.2" x2="22" y2="42.7"/>
	<polyline class="st1" points="27.5,40.9 19.8,47.1 17.5,47.1 	"/>
	<polyline class="st1" points="26.1,44.1 29.8,47.1 32,47.1 	"/>
</g>
</svg>
