<svg xmlns="http://www.w3.org/2000/svg" viewBox="0 0 50 50"><linearGradient id="a" gradientUnits="userSpaceOnUse" x1="6.468" y1="-676.576" x2="47.712" y2="-705.048" gradientTransform="matrix(1 0 0 -1 0 -664.4)"><stop offset="0" stop-color="#21b0fd"/><stop offset=".5" stop-color="#311cc2"/><stop offset="1" stop-color="#7300cc"/></linearGradient><path d="M24.8 40.5c-4.1 0-8.2-1-11.9-2.9-3.4-1.8-6.5-4.4-9.1-7.6-.9-1.1-1.7-2.2-2.5-3.5-.8-1.3-.8-1.7 0-2.9 2.6-4.3 5.8-7.6 9.8-10.1 3.6-2.4 7.8-3.7 12.2-3.9 3.4-.3 6.5.1 9.7 1.1 3.5 1.1 6.7 3 9.7 5.6 2.5 2.2 4.4 4.8 6.2 7.6.4.7.5 1.5 0 2-3.2 5.3-7.4 9.4-12.6 12-3.5 1.8-7.3 2.6-11.5 2.6zm-8-4.2c-2.7-2.8-3.9-5.3-4.4-7.9-.1-.4-.3-.7-.5-1-.8-.7-.5-1.9.4-2.4.5-.3 1.1-.1 1.5.3.4.4.5 1.1.1 1.8-.3.4-.3.9-.1 1.5.3 1 .6 1.8 1 2.7 2.7 5.7 8.3 7.9 13.9 6.2 1.1-.3 2.3-1 3.4-1.8.6-.4 1.1-.4 1.3.1.1.7.5.6 1 .4 5.1-2 9.2-5.7 12.4-10.6.3-.4.3-.7 0-1.3-2.6-4-6-7.2-10.1-9.5-.9-.6-1.9-1-3.1-1.5 0 .1 0 .1.1.1l.3.3c2 1.9 3.4 4.4 4.2 7.2.1.4.3.6.5.9.6.6.8 1.5.4 2-.4.6-1.1.9-1.8.4-.6-.4-.9-1.1-.5-1.9.1-.4.1-.7 0-1.1-.6-2.4-1.8-4.5-3.5-6.2-3.1-2.8-6.5-3.8-10.5-2.9-1.4.3-2.7 1-4.1 1.9-.5.4-1 .3-1.1-.3-.1-.7-.4-.4-.8-.3-5.4 2.3-9.5 6-12.8 10.8-.4.6-.4 1 0 1.6 2.6 3.8 5.6 6.7 9.4 9 1 .4 2.1 1.1 3.4 1.5z" fill="url(#a)"/><linearGradient id="b" gradientUnits="userSpaceOnUse" x1="6.023" y1="-676.135" x2="48.404" y2="-705.39" gradientTransform="matrix(1 0 0 -1 0 -664.4)"><stop offset="0" stop-color="#21b0fd"/><stop offset=".5" stop-color="#311cc2"/><stop offset="1" stop-color="#7300cc"/></linearGradient><path d="M35.9 25c-.1 6.6-4.8 11.7-10.7 11.7-6.2 0-10.7-5.7-10.7-11.9.1-5.8 4.3-11.6 10.7-11.6 6.1.1 10.4 5.4 10.7 11.8zm-20.2 0c0 5.6 4.2 10.2 9.3 10.2s9.4-4.7 9.4-10.4c0-5.6-4.2-10.2-9.3-10.2-5.2.2-9.4 4.7-9.4 10.4z" fill="url(#b)"/><linearGradient id="c" gradientUnits="userSpaceOnUse" x1="3.301" y1="-672.404" x2="50.768" y2="-705.171" gradientTransform="matrix(1 0 0 -1 0 -664.4)"><stop offset="0" stop-color="#21b0fd"/><stop offset=".5" stop-color="#311cc2"/><stop offset="1" stop-color="#7300cc"/></linearGradient><path d="M38.1 26.6c-.1 1.7-.5 3.3-1.3 4.8-.5 1.1-1.1 2.2-1.9 3.3-.3.3-.5.6-1 .4-.5-.3-.5-.7-.1-1.3.9-1.3 1.8-2.7 2.3-4.3.3-1 .5-1.8.6-2.8 0-.4.3-.9.8-.7.5-.1.6.2.6.6z" fill="url(#c)"/><linearGradient id="d" gradientUnits="userSpaceOnUse" x1="4.37" y1="-676.742" x2="51.272" y2="-709.118" gradientTransform="matrix(1 0 0 -1 0 -664.4)"><stop offset="0" stop-color="#21b0fd"/><stop offset=".5" stop-color="#311cc2"/><stop offset="1" stop-color="#7300cc"/></linearGradient><path d="M12 22.6c.3-1.7.8-3.4 1.7-5 .5-.9 1-1.7 1.7-2.4.3-.3.6-.7 1-.3.4.4.3.9 0 1.3-1.7 1.9-2.6 4.3-3.1 6.8-.1.4-.4.7-.8.6-.3-.1-.5-.4-.5-1z" fill="url(#d)"/><linearGradient id="e" gradientUnits="userSpaceOnUse" x1="5.407" y1="-676.204" x2="48.665" y2="-706.065" gradientTransform="matrix(1 0 0 -1 0 -664.4)"><stop offset="0" stop-color="#21b0fd"/><stop offset=".5" stop-color="#311cc2"/><stop offset="1" stop-color="#7300cc"/></linearGradient><path d="M25.2 32.1h-1.8c-.9 0-1.1-.3-1-1.3.3-1.7.5-3.4.8-5.2.1-.6 0-1-.4-1.3-1.3-1.6-1.4-3.7-.1-5 1.3-1.6 3.2-1.8 4.8-.6 1.7 1.3 1.9 3.9.5 5.6-.5.6-.5 1-.4 1.7.3 1.6.5 3.3.8 4.8.1 1-.1 1.3-1 1.3h-2.2z" fill="url(#e)"/></svg>