<svg xmlns="http://www.w3.org/2000/svg" viewBox="0 0 298 300"><style>.st2{fill:#fff}</style><g id="레이어_2"><path d="M711 206H568c-5.5 0-10-4.5-10-10V53c0-5.5 4.5-10 10-10h143c5.5 0 10 4.5 10 10v143c0 5.5-4.5 10-10 10z" opacity=".6" fill="#fff"/><path class="st2" d="M435.59 263h-39.41c-6.7 0-12.19-5.48-12.19-12.19V111.19c0-6.7 5.48-12.19 12.19-12.19h39.41c6.7 0 12.19 5.48 12.19 12.19v139.63c0 6.7-5.49 12.18-12.19 12.18z"/><path class="st2" d="M384 250.81V211.4c0-6.7 5.48-12.19 12.19-12.19h139.63c6.7 0 12.19 5.48 12.19 12.19v39.41c0 6.7-5.48 12.19-12.19 12.19H396.19c-6.71 0-12.19-5.48-12.19-12.19zM464 58h-34c-6.6 0-12-5.4-12-12v-85c0-6.6 5.4-12 12-12h34c6.6 0 12 5.4 12 12v85c0 6.6-5.4 12-12 12z"/><path class="st2" d="M428 56V22c0-6.6 5.4-12 12-12h85c6.6 0 12 5.4 12 12v34c0 6.6-5.4 12-12 12h-85c-6.6 0-12-5.4-12-12z"/><path class="st2" d="M476 .96s-.91 9.06 9.05 9.05C495 10 489 20 489 20l-22 4-8-21 17-2.04z"/><path d="M197.46 217.17H96.24c-11.68-.45-12.71-10.19-12.83-13.28l-.29-101.06C83.12 94.13 76 87 67.29 87H16.12C7.42 87 .29 94.12.29 102.83v181.35c0 8.7 7.12 15.83 15.83 15.83h181.34c8.7 0 15.83-7.12 15.83-15.83V233c0-8.71-7.13-15.83-15.83-15.83zM284.71 0H99c-7.14 0-12.99 5.84-12.99 12.99v45.46s0 10.38 11.69 11.68c.33.04 0 0 .73 0h34.33c8.57 0 15.58 7.01 15.58 15.58v53.47c.2 3.16 1.75 9.97 11.33 10.16h52.3c8.57 0 15.58 7.01 15.58 15.58v35.07s0 10.38 11.49 11.49c.33.03.64.1.93.19h44.72c7.14 0 12.99-5.84 12.99-12.99V12.99C297.7 5.84 291.86 0 284.71 0z" fill="#3e8ff7"/></g></svg>