<svg xmlns="http://www.w3.org/2000/svg" viewBox="0 0 50 50"><path d="M41.7 4.6c-.7-.7-1.8-.8-2.6-.2l-5 4.6c-.7.7-1.8.7-2.5-.2l-.8-.8-3.9-4.2c-1.3-1.4-3.5-1.5-4.9-.3l-17.5 16c-1.3 1.3-1.5 3.5-.3 5l5.2 5.7c.7.7 1.8.8 2.5.2l1.5-1.4c.7-.7.8-1.8.2-2.5l-2.4-2.6c-1-1-1-2.5 0-3.3l11-10c1-.8 2.4-.8 3.2.2l3.5 3.7 2.1 2.2c1 1 2.5 1.1 3.5.2l8.2-7.6c1-1 1.1-2.5.2-3.5l-1.2-1.2z" fill="#3f8989"/><path d="M8.2 45.5c.7.7 1.8.8 2.6.2l5-4.6c.7-.7 1.9-.7 2.6.2l.7.8 3.7 4.2c1.3 1.4 3.5 1.5 4.9.3l17.7-15.9c1.4-1.3 1.5-3.5.3-4.9l-5.2-5.7c-.7-.7-1.8-.8-2.5-.2l-1.5 1.4c-.7.7-.8 1.8-.2 2.5l2.4 2.6c.8 1 .7 2.4-.2 3.2l-10.8 10c-1 .8-2.4.7-3.2-.2L21 35.6l-2.1-2.2c-1-1-2.5-1.1-3.5-.2L7 40.8c-1 1-1.1 2.5-.2 3.5l1.4 1.2z" fill="#7abebe"/></svg>