<svg xmlns="http://www.w3.org/2000/svg" xmlns:xlink="http://www.w3.org/1999/xlink" viewBox="0 0 50 50"><defs><path id="a" d="M4.9 29L25 49.5l.6-8.9L4.9 20.9z"/></defs><clipPath id="b"><use xlink:href="#a" overflow="visible"/></clipPath><g clip-path="url(#b)"><defs><path id="c" d="M-57.9-25.3h166.1v130.5H-57.9z"/></defs><clipPath id="d"><use xlink:href="#c" overflow="visible"/></clipPath><path clip-path="url(#d)" fill="#f8b334" d="M3.7 19.7h23.1v31H3.7z"/></g><defs><path id="e" d="M25 40.6v8.9L45 29l.1-8.1z"/></defs><clipPath id="f"><use xlink:href="#e" overflow="visible"/></clipPath><g clip-path="url(#f)"><defs><path id="g" d="M-57.9-25.3h166.1v130.5H-57.9z"/></defs><clipPath id="h"><use xlink:href="#g" overflow="visible"/></clipPath><path clip-path="url(#h)" fill="#d8821d" d="M23.8 19.7h22.5v31H23.8z"/></g><defs><path id="i" d="M25 .5L4.9 20.9 25 41.3l20.1-20.4L25 .5z"/></defs><clipPath id="j"><use xlink:href="#i" overflow="visible"/></clipPath><g clip-path="url(#j)"><defs><path id="k" d="M-57.9-25.3h166.1v130.5H-57.9z"/></defs><clipPath id="l"><use xlink:href="#k" overflow="visible"/></clipPath><path clip-path="url(#l)" fill="#fed63e" d="M3.7-.7h42.6v43.2H3.7z"/></g><defs><path id="m" d="M9.4 20.9L25 5l15.6 15.9L25 36.8 9.4 20.9zM25 2.2L6.6 20.9 25 39.6l18.4-18.7L25 2.2z"/></defs><clipPath id="n"><use xlink:href="#m" overflow="visible"/></clipPath><g clip-path="url(#n)"><defs><path id="o" d="M-57.9-25.1h166.1v130.5H-57.9z"/></defs><clipPath id="p"><use xlink:href="#o" overflow="visible"/></clipPath><path clip-path="url(#p)" fill="#1d1d1b" d="M5.4 1h39.3v39.9H5.4z"/></g><defs><path id="q" d="M25 10.8V31l10-10.1-10-10.1zm2 4.8l5.2 5.3-5.2 5.3V15.6z"/></defs><clipPath id="r"><use xlink:href="#q" overflow="visible"/></clipPath><g clip-path="url(#r)"><defs><path id="s" d="M-58.2-25h166.1v130.5H-58.2z"/></defs><clipPath id="t"><use xlink:href="#s" overflow="visible"/></clipPath><path clip-path="url(#t)" fill="#1d1d1b" d="M23.8 9.6h12.4v22.7H23.8z"/></g></svg>