<svg version="1.1" id="Layer_1" xmlns="http://www.w3.org/2000/svg" x="0" y="0" viewBox="0 0 50 50" xml:space="preserve"><style>.st0{fill:#1348e8}</style><path class="st0" d="M30.5 27.3v-5.7c0-2.4-2-4.4-4.4-4.4h-2.2c-2.4 0-4.4 2-4.4 4.4v5.7c0 2.4 2 4.4 4.4 4.4h2.2c.7 0 1.4-.2 2-.5l1.4 1.4c.1.1.2.2.4.2.1 0 .3-.1.4-.2.2-.2.2-.6 0-.8L29 30.5c.9-.8 1.5-1.9 1.5-3.2zm-4.2 2l1 1c-.4.1-.8.2-1.2.2h-2.2c-1.8 0-3.3-1.5-3.3-3.3v-5.7c0-1.8 1.5-3.3 3.3-3.3h2.2c1.8 0 3.3 1.5 3.3 3.3v5.7c0 1-.4 1.9-1.1 2.5L27 28.5c-.2-.2-.6-.2-.8 0-.2.2-.2.6.1.8z"/><path class="st0" d="M25 2.2C12.4 2.2 2.2 12.4 2.2 25S12.4 47.8 25 47.8 47.8 37.6 47.8 25 37.6 2.2 25 2.2zm22 22.1l-1.8.2v-.7l1.8-.2v.7zM25 44.4C14.3 44.4 5.6 35.7 5.6 25S14.3 5.6 25 5.6 44.4 14.3 44.4 25 35.7 44.4 25 44.4zM46.4 20l-1.8.5c0-.3-.2-.5-.2-.7l1.8-.5c.1.3.2.4.2.7zm-1.2-3.9l-1.6.7c-.2-.3-.2-.5-.3-.7l1.6-.7c.1.2.1.5.3.7zM43 12.6l-1.5 1c-.2-.2-.3-.5-.5-.6l1.5-1c.2.1.4.2.5.6zm-2.6-3.3l-1.3 1.3c-.2-.1-.3-.3-.6-.5l1.4-1.3.5.5zm-3.1-2.5l-1 1.5c-.2-.2-.5-.3-.6-.5l1-1.5c.2.2.4.3.6.5zm-3.7-2l-.7 1.8c-.3-.2-.5-.2-.7-.3l.7-1.8c.4.1.6.1.7.3zm-3.9-1.3l-.3 1.8c-.2-.1-.4-.3-.7-.3l.3-1.7c.3.2.4.2.7.2zM25 3h.5v1.8h-.8V3h.3zm-4 .5l.3 1.8c-.3 0-.5.2-.7.2l-.3-1.8c.3-.2.6-.2.7-.2zm-3.9 1l.7 1.8c-.3.2-.5.2-.7.3l-.7-1.8c.1-.2.3-.2.7-.3zm-3.7 1.8l1 1.5c-.1.2-.4.3-.5.5l-1-1.5c0-.2.2-.3.5-.5zM10 8.8l1.3 1.3c-.2.2-.5.3-.6.5L9.4 9.3c.4-.2.5-.3.6-.5zm-2.6 3.1l1.5 1c-.2.2-.3.5-.5.6l-1.5-1c.2-.3.4-.4.5-.6zm-2.2 3.5l1.6.7c-.2.2-.2.5-.3.7l-1.6-.7c.1-.2.1-.5.3-.7zm-1.5 3.8l1.8.5c0 .3-.2.5-.2.7L3.5 20c0-.3.2-.4.2-.8zm-.6 4.3l1.8.2v.7L3 24.2c0-.2 0-.4.1-.7zm0 4.5l1.8-.3c0 .3 0 .5.2.7l-1.8.3c0-.4 0-.6-.2-.7zm1.1 4.1l1.8-.6c.2.3.2.5.3.7l-1.8.5c-.2-.2-.3-.5-.3-.6zm1.6 3.6l1.6-.8c.2.2.3.5.5.6l-1.6.8c-.2-.2-.3-.2-.5-.6zm2.3 3.4l1.3-1.2c.2.2.3.3.5.6l-1.2 1.2c-.1-.2-.4-.3-.6-.6zm3 2.9l1.2-1.5c.2.2.5.3.6.5l-1.2 1.5c-.2-.1-.5-.3-.6-.5zm3.3 2.4l.8-1.6c.2.2.5.2.6.3l-.8 1.6c-.1-.2-.3-.3-.6-.3zm3.8 1.6l.6-1.8c.3.2.5.2.7.2l-.5 1.8c-.1 0-.5-.2-.8-.2zm4.3.9l.2-1.8h.7l-.2 1.8h-.7zm4.3 0l-.2-1.8h.7l.2 1.8h-.7zm4.2-.7l-.6-1.8c.3 0 .5-.2.7-.2l.6 1.8c-.2 0-.6.2-.7.2zm3.8-1.5l-.8-1.6c.2-.2.5-.2.6-.3l.8 1.6c-.1 0-.3.1-.6.3zm3.6-2.2L37.2 41c.2-.2.5-.3.6-.5L39 42c-.2.2-.5.4-.6.5zm2.8-2.8l-1.3-1.2c.2-.2.3-.3.5-.6l1.3 1.2c0 .3-.3.4-.5.6zm2.6-3.3l-1.6-.8c.2-.2.3-.5.5-.6l1.6.8c-.3.3-.4.3-.5.6zm1.7-3.8l-1.8-.6c.2-.3.2-.5.3-.7l1.8.6c0 .3-.1.6-.3.7zm1.2-3.9l-1.7-.3c0-.3.2-.5.2-.7l1.8.3c-.3.1-.3.3-.3.7z"/></svg>