<svg version="1.1" id="레이어_1" xmlns="http://www.w3.org/2000/svg" x="0" y="0" viewBox="0 0 50 50" xml:space="preserve"><style>.st0{fill:#00993e;stroke:#231815;stroke-width:1.6;stroke-linecap:round;stroke-linejoin:round;stroke-miterlimit:10}.st1{fill:#0e8c3b}.st2{fill:#457435}.st3,.st5{fill:none;stroke:#231815;stroke-width:1.6;stroke-linejoin:round;stroke-miterlimit:10}.st5{fill:#fff}</style><path class="st0" d="M28.6 9.8c0 4.1-4.3 7.3-4.3 7.3s-4.2-3.3-4.2-7.3 4.2-7.3 4.2-7.3 4.3 3.2 4.3 7.3z"/><path class="st1" d="M24.3 3.4V16S28 13.2 28 9.8s-3.7-6.4-3.7-6.4z"/><path class="st2" d="M20.7 9.8c0 3.4 3.4 6.2 3.6 6.3V3.4c-.2.2-3.6 2.9-3.6 6.4z"/><path class="st0" d="M28.6 9.8c0 4.1-4.3 7.3-4.3 7.3s-4.2-3.3-4.2-7.3 4.2-7.3 4.2-7.3 4.3 3.2 4.3 7.3z"/><path class="st1" d="M24.3 3.4V16S28 13.2 28 9.8s-3.7-6.4-3.7-6.4z"/><path class="st2" d="M20.7 9.8c0 3.4 3.4 6.2 3.6 6.3V3.4c-.2.2-3.6 2.9-3.6 6.4z"/><path class="st0" d="M28.6 9.8c0 4.1-4.3 7.3-4.3 7.3s-4.2-3.3-4.2-7.3 4.2-7.3 4.2-7.3 4.3 3.2 4.3 7.3z"/><path class="st1" d="M24.3 3.4V16S28 13.2 28 9.8s-3.7-6.4-3.7-6.4z"/><path class="st2" d="M20.7 9.8c0 3.4 3.4 6.2 3.6 6.3V3.4c-.2.2-3.6 2.9-3.6 6.4z"/><path class="st0" d="M42.1 25.7c-1.7 1-4.2 0-4.2 0S38.2 23 40 22c1.7-1 4.2 0 4.2 0s-.4 2.6-2.1 3.7z"/><path class="st1" d="M43.8 22.2l-5.5 3.1s2.1.9 3.6 0c1.6-.8 1.9-3.1 1.9-3.1z"/><path class="st2" d="M40.1 22.3c-1.5.8-1.8 3-1.8 3.1l5.5-3.1c-.1-.1-2.2-.9-3.7 0z"/><path class="st3" d="M14.1 27.6v11.8l10.2 5.8 10.1-5.8V27.6l-10.1-5.8zm0 .1l10.2 5.8"/><path d="M24.3 9.8v23.9m16.2-9.6l-16.2 9.6" stroke-linecap="round" fill="none" stroke="#231815" stroke-width="1.6" stroke-linejoin="round" stroke-miterlimit="10"/><path class="st3" d="M34.4 39.4l-10.1-5.7m0 11.5V33.7m-10.2 5.7l10.2-5.9"/><circle class="st5" cx="24.3" cy="33.5" r="2.4"/><circle class="st5" cx="24.3" cy="21.8" r="2.4"/><circle class="st5" cx="34.4" cy="27.7" r="2.4"/><circle class="st5" cx="34.4" cy="39.4" r="2.4"/><circle class="st5" cx="24.3" cy="45.2" r="2.4"/><circle class="st5" cx="14.1" cy="39.4" r="2.4"/><circle class="st5" cx="14.1" cy="27.7" r="2.4"/></svg>