<svg xmlns="http://www.w3.org/2000/svg" viewBox="0 0 50 50"><path d="M36.5 18.2c-.6.9-1.6 1.7-2.8 1.8-2.6.2-4.4-.7-5.1-1.7 0 0 .8.1 1.5-.2.7-.3 1.6-1 2.5-1.1 3.4-.3 6.5 2.3 6.8 5.7s-2.3 6.5-5.7 6.8M30.4 8.4c.6.9.7 2.3.1 3.4-1.1 2.4-2.8 3.4-4 3.6 0 0 .6-.7.6-1.4 0-.8-.1-1.8.2-2.7 1.5-3.2 5.2-4.5 8.3-3.1s4.5 5.2 3.1 8.3M19 8.7c1.1 0 2.3.6 3 1.6 1.6 2.2 1.6 4.2 1.1 5.2 0 0-.3-.8-.9-1.1-.7-.3-1.7-.8-2.2-1.6-2-2.8-1.4-6.7 1.5-8.7s6.7-1.4 8.7 1.5M13.5 18.8c.6-.9 1.6-1.7 2.8-1.8 2.6-.2 4.4.7 5.1 1.7 0 0-.8-.1-1.5.2-.7.3-1.6 1-2.5 1.1-3.4.3-6.5-2.3-6.8-5.7s2.3-6.5 5.7-6.8m3.3 21c-.6-.9-.7-2.3-.1-3.4 1.1-2.4 2.8-3.4 4-3.6 0 0-.6.7-.6 1.4s.1 1.8-.2 2.7c-1.5 3.2-5.2 4.5-8.3 3.1-3.2-1.5-4.5-5.2-3.1-8.3m19.9 8c-1.1 0-2.5-.7-3.2-1.8-1.6-2.2-1.6-4.2-1.1-5.2 0 0 .3.8.9 1.1.7.3 1.7.8 2.2 1.6 2 2.8 1.2 5.6-.2 7.3L21.9 38" stroke-linejoin="round" fill="none" stroke="#000" stroke-width=".75" stroke-miterlimit="10"/><path d="M19.7 30.1l4.1 4.6m3.7 1.2L22 40.3m5.5-2.1L22 42.7m5.5-1.8l-7.7 6.2h-2.3m8.6-3l3.7 3H32" stroke-linecap="round" fill="none" stroke="#000" stroke-width=".75" stroke-miterlimit="10"/></svg>