<?xml version="1.0" encoding="utf-8"?>
<!-- Generator: Adobe Illustrator 22.0.1, SVG Export Plug-In . SVG Version: 6.00 Build 0)  -->
<svg version="1.1" id="Layer_1" xmlns="http://www.w3.org/2000/svg" xmlns:xlink="http://www.w3.org/1999/xlink" x="0px" y="0px"
	 viewBox="0 0 50 50" style="enable-background:new 0 0 50 50;" xml:space="preserve">
<style type="text/css">
	.st0{fill:#3F8989;}
	.st1{fill:#7ABEBE;}
</style>
<g>
	<path class="st0" d="M41.7,4.6c-0.7-0.7-1.8-0.8-2.6-0.2l-5,4.6c-0.7,0.7-1.8,0.7-2.5-0.2L30.8,8l-3.9-4.2
		c-1.3-1.4-3.5-1.5-4.9-0.3l-17.5,16C3.2,20.8,3,23,4.2,24.5l5.2,5.7c0.7,0.7,1.8,0.8,2.5,0.2l1.5-1.4c0.7-0.7,0.8-1.8,0.2-2.5
		l-2.4-2.6c-1-1-1-2.5,0-3.3l11-10c1-0.8,2.4-0.8,3.2,0.2l3.5,3.7l2.1,2.2c1,1,2.5,1.1,3.5,0.2l8.2-7.6c1-1,1.1-2.5,0.2-3.5
		L41.7,4.6z"/>
	<path class="st1" d="M8.2,45.5c0.7,0.7,1.8,0.8,2.6,0.2l5-4.6c0.7-0.7,1.9-0.7,2.6,0.2l0.7,0.8l3.7,4.2c1.3,1.4,3.5,1.5,4.9,0.3
		l17.7-15.9c1.4-1.3,1.5-3.5,0.3-4.9l-5.2-5.7c-0.7-0.7-1.8-0.8-2.5-0.2l-1.5,1.4c-0.7,0.7-0.8,1.8-0.2,2.5l2.4,2.6
		c0.8,1,0.7,2.4-0.2,3.2l-10.8,10c-1,0.8-2.4,0.7-3.2-0.2L21,35.6l-2.1-2.2c-1-1-2.5-1.1-3.5-0.2l-8.4,7.6c-1,1-1.1,2.5-0.2,3.5
		L8.2,45.5z"/>
</g>
</svg>
