<?xml version="1.0" encoding="utf-8"?>
<!-- Generator: Adobe Illustrator 22.0.1, SVG Export Plug-In . SVG Version: 6.00 Build 0)  -->
<svg version="1.1" id="Layer_1" xmlns="http://www.w3.org/2000/svg" xmlns:xlink="http://www.w3.org/1999/xlink" x="0px" y="0px"
	 viewBox="0 0 50 50" style="enable-background:new 0 0 50 50;" xml:space="preserve">
<style type="text/css">
	.st0{clip-path:url(#SVGID_2_);}
	.st1{clip-path:url(#SVGID_4_);fill:#F8B334;}
	.st2{clip-path:url(#SVGID_6_);}
	.st3{clip-path:url(#SVGID_8_);fill:#D8821D;}
	.st4{clip-path:url(#SVGID_10_);}
	.st5{clip-path:url(#SVGID_12_);fill:#FED63E;}
	.st6{clip-path:url(#SVGID_14_);}
	.st7{clip-path:url(#SVGID_16_);fill:#1D1D1B;}
	.st8{clip-path:url(#SVGID_18_);}
	.st9{clip-path:url(#SVGID_20_);fill:#1D1D1B;}
</style>
<g>
	<g>
		<defs>
			<polygon id="SVGID_1_" points="4.9,29 25,49.5 25.6,40.6 4.9,20.9 			"/>
		</defs>
		<clipPath id="SVGID_2_">
			<use xlink:href="#SVGID_1_"  style="overflow:visible;"/>
		</clipPath>
		<g class="st0">
			<defs>
				<rect id="SVGID_3_" x="-57.9" y="-25.3" width="166.1" height="130.5"/>
			</defs>
			<clipPath id="SVGID_4_">
				<use xlink:href="#SVGID_3_"  style="overflow:visible;"/>
			</clipPath>
			<rect x="3.7" y="19.7" class="st1" width="23.1" height="31"/>
		</g>
	</g>
	<g>
		<defs>
			<polygon id="SVGID_5_" points="25,40.6 25,49.5 45,29 45.1,20.9 			"/>
		</defs>
		<clipPath id="SVGID_6_">
			<use xlink:href="#SVGID_5_"  style="overflow:visible;"/>
		</clipPath>
		<g class="st2">
			<defs>
				<rect id="SVGID_7_" x="-57.9" y="-25.3" width="166.1" height="130.5"/>
			</defs>
			<clipPath id="SVGID_8_">
				<use xlink:href="#SVGID_7_"  style="overflow:visible;"/>
			</clipPath>
			<rect x="23.8" y="19.7" class="st3" width="22.5" height="31"/>
		</g>
	</g>
	<g>
		<defs>
			<polygon id="SVGID_9_" points="25,0.5 4.9,20.9 25,41.3 45.1,20.9 25,0.5 			"/>
		</defs>
		<clipPath id="SVGID_10_">
			<use xlink:href="#SVGID_9_"  style="overflow:visible;"/>
		</clipPath>
		<g class="st4">
			<defs>
				<rect id="SVGID_11_" x="-57.9" y="-25.3" width="166.1" height="130.5"/>
			</defs>
			<clipPath id="SVGID_12_">
				<use xlink:href="#SVGID_11_"  style="overflow:visible;"/>
			</clipPath>
			<rect x="3.7" y="-0.7" class="st5" width="42.6" height="43.2"/>
		</g>
	</g>
	<g>
		<defs>
			<path id="SVGID_13_" d="M9.4,20.9L25,5l15.6,15.9L25,36.8L9.4,20.9z M25,2.2L6.6,20.9L25,39.6l18.4-18.7L25,2.2z"/>
		</defs>
		<clipPath id="SVGID_14_">
			<use xlink:href="#SVGID_13_"  style="overflow:visible;"/>
		</clipPath>
		<g class="st6">
			<defs>
				<rect id="SVGID_15_" x="-57.9" y="-25.1" width="166.1" height="130.5"/>
			</defs>
			<clipPath id="SVGID_16_">
				<use xlink:href="#SVGID_15_"  style="overflow:visible;"/>
			</clipPath>
			<rect x="5.4" y="1" class="st7" width="39.3" height="39.9"/>
		</g>
	</g>
	<g>
		<defs>
			<path id="SVGID_17_" d="M25,10.8V31l10-10.1L25,10.8z M27,15.6l5.2,5.3L27,26.2V15.6z"/>
		</defs>
		<clipPath id="SVGID_18_">
			<use xlink:href="#SVGID_17_"  style="overflow:visible;"/>
		</clipPath>
		<g class="st8">
			<defs>
				<rect id="SVGID_19_" x="-58.2" y="-25" width="166.1" height="130.5"/>
			</defs>
			<clipPath id="SVGID_20_">
				<use xlink:href="#SVGID_19_"  style="overflow:visible;"/>
			</clipPath>
			<rect x="23.8" y="9.6" class="st9" width="12.4" height="22.7"/>
		</g>
	</g>
</g>
</svg>
