<?xml version="1.0" encoding="utf-8"?>
<!-- Generator: Adobe Illustrator 22.0.1, SVG Export Plug-In . SVG Version: 6.00 Build 0)  -->
<svg version="1.1" id="레이어_1" xmlns="http://www.w3.org/2000/svg" xmlns:xlink="http://www.w3.org/1999/xlink" x="0px"
	 y="0px" viewBox="0 0 50 50" style="enable-background:new 0 0 50 50;" xml:space="preserve">
<style type="text/css">
	.st0{fill:#00993E;stroke:#231815;stroke-width:1.6;stroke-linecap:round;stroke-linejoin:round;stroke-miterlimit:10;}
	.st1{fill:#0E8C3B;}
	.st2{fill:#457435;}
	.st3{fill:none;stroke:#231815;stroke-width:1.6;stroke-linejoin:round;stroke-miterlimit:10;}
	.st4{fill:none;stroke:#231815;stroke-width:1.6;stroke-linecap:round;stroke-linejoin:round;stroke-miterlimit:10;}
	.st5{fill:#FFFFFF;stroke:#231815;stroke-width:1.6;stroke-linejoin:round;stroke-miterlimit:10;}
</style>
<g>
	<path class="st0" d="M28.6,9.8c0,4.1-4.3,7.3-4.3,7.3s-4.2-3.3-4.2-7.3s4.2-7.3,4.2-7.3S28.6,5.7,28.6,9.8z"/>
	<path class="st1" d="M24.3,3.4C24.3,3.4,24.3,3.4,24.3,3.4l0,12.6c0,0,0,0,0,0S28,13.2,28,9.8S24.3,3.4,24.3,3.4z"/>
	<path class="st2" d="M20.7,9.8c0,3.4,3.4,6.2,3.6,6.3V3.4C24.1,3.6,20.7,6.3,20.7,9.8z"/>
	<path class="st0" d="M28.6,9.8c0,4.1-4.3,7.3-4.3,7.3s-4.2-3.3-4.2-7.3s4.2-7.3,4.2-7.3S28.6,5.7,28.6,9.8z"/>
	<path class="st1" d="M24.3,3.4C24.3,3.4,24.3,3.4,24.3,3.4l0,12.6c0,0,0,0,0,0S28,13.2,28,9.8S24.3,3.4,24.3,3.4z"/>
	<path class="st2" d="M20.7,9.8c0,3.4,3.4,6.2,3.6,6.3V3.4C24.1,3.6,20.7,6.3,20.7,9.8z"/>
	<path class="st0" d="M28.6,9.8c0,4.1-4.3,7.3-4.3,7.3s-4.2-3.3-4.2-7.3s4.2-7.3,4.2-7.3S28.6,5.7,28.6,9.8z"/>
	<path class="st1" d="M24.3,3.4C24.3,3.4,24.3,3.4,24.3,3.4l0,12.6c0,0,0,0,0,0S28,13.2,28,9.8S24.3,3.4,24.3,3.4z"/>
	<path class="st2" d="M20.7,9.8c0,3.4,3.4,6.2,3.6,6.3V3.4C24.1,3.6,20.7,6.3,20.7,9.8z"/>
	<g>
		<path class="st0" d="M42.1,25.7c-1.7,1-4.2,0-4.2,0S38.2,23,40,22c1.7-1,4.2,0,4.2,0S43.8,24.6,42.1,25.7z"/>
		<path class="st1" d="M43.8,22.2C43.8,22.2,43.8,22.2,43.8,22.2l-5.5,3.1c0,0,0,0,0,0s2.1,0.9,3.6,0C43.5,24.5,43.8,22.2,43.8,22.2
			z"/>
		<path class="st2" d="M40.1,22.3c-1.5,0.8-1.8,3-1.8,3.1l5.5-3.1C43.7,22.2,41.6,21.4,40.1,22.3z"/>
	</g>
	<polygon class="st3" points="14.1,27.6 14.1,39.4 24.3,45.2 34.4,39.4 34.4,27.6 24.3,21.8 	"/>
	<line class="st3" x1="14.1" y1="27.7" x2="24.3" y2="33.5"/>
	<line class="st4" x1="24.3" y1="9.8" x2="24.3" y2="33.7"/>
	<line class="st4" x1="40.5" y1="24.1" x2="24.3" y2="33.7"/>
	<line class="st3" x1="34.4" y1="39.4" x2="24.3" y2="33.7"/>
	<line class="st3" x1="24.3" y1="45.2" x2="24.3" y2="33.7"/>
	<line class="st3" x1="14.1" y1="39.4" x2="24.3" y2="33.5"/>
	<circle class="st5" cx="24.3" cy="33.5" r="2.4"/>
	<circle class="st5" cx="24.3" cy="21.8" r="2.4"/>
	<circle class="st5" cx="34.4" cy="27.7" r="2.4"/>
	<circle class="st5" cx="34.4" cy="39.4" r="2.4"/>
	<circle class="st5" cx="24.3" cy="45.2" r="2.4"/>
	<circle class="st5" cx="14.1" cy="39.4" r="2.4"/>
	<circle class="st5" cx="14.1" cy="27.7" r="2.4"/>
</g>
</svg>
